# xmcd CD database file
#
# Track frame offsets:
#	150
#	44032
#	70937
#	84552
#	101890
#	124262
#	147827
#	176445
#	206002
#	221980
#	244482
#	271210
#	291532
#	310135
#	331255
#
# Disc length: 4587 seconds
#
# Revision: 0
# Processed by: cddbd v1.4PL0 Copyright (c) Steve Scherf et al.
# Submitted via: CDex 1.50
#
DISCID=f911e90f
DTITLE=Blakey, Roach, E Jones, PJ Jones - The Big Beat
DYEAR=1973
DGENRE=Jazz
TTITLE0=Caravan
TTITLE1=The High Priest
TTITLE2=The Theme
TTITLE3=Conversation
TTITLE4=Jodie's Cha-Cha
TTITLE5=Larry-Larue
TTITLE6=Lady Luck
TTITLE7=Buzz-At
TTITLE8=Pretty Brown
TTITLE9=Six and Four
TTITLE10=Stablemates
TTITLE11=The Carioca ("El Tambores")
TTITLE12=Battery Blues
TTITLE13=Gone, Gone, Gone
TTITLE14=The Tribal Message
EXTD=YEAR: 1973
EXTT0=
EXTT1=
EXTT2=
EXTT3=
EXTT4=
EXTT5=
EXTT6=
EXTT7=
EXTT8=
EXTT9=
EXTT10=
EXTT11=
EXTT12=
EXTT13=
EXTT14=
PLAYORDER=
